<svg width="22" height="20" viewBox="0 0 22 20" fill="none" xmlns="http://www.w3.org/2000/svg">
<path d="M2.96796 10.0721L10.0782 17.1824C10.5254 17.6296 10.5254 18.3451 10.0782 18.7476C9.631 19.15 8.91548 19.1948 8.513 18.7476L0.597285 10.8318C0.150084 10.3846 0.150084 9.66912 0.597285 9.26663L8.87076 1.03813C9.09436 0.814531 9.36268 0.725092 9.67572 0.725092C9.98877 0.725092 10.2571 0.814531 10.4807 1.03813C10.9279 1.48533 10.9279 2.20086 10.4807 2.60334L2.96796 10.0721Z" fill="white"/>
<path d="M20.6319 11.012L8.55749 11.012C7.93141 11.012 7.43949 10.52 7.43949 9.89396C7.43949 9.26788 7.93141 8.77596 8.55749 8.77596L20.6319 8.77596C21.258 8.77596 21.7499 9.26788 21.7499 9.89396C21.7499 10.52 21.258 11.012 20.6319 11.012Z" fill="white"/>
</svg>
