<svg width="108" height="50" viewBox="0 0 108 50" fill="none" xmlns="http://www.w3.org/2000/svg">
<g filter="url(#filter0_d_0_7)">
<path d="M12.8959 15.7032L4.95287 13.7708L12.7321 7.5301L12.8959 15.7032Z" fill="#544CAC"/>
<path d="M23.3396 11.3583L14.6498 18.3272L14.3796 4.74039L23.3396 11.3583Z" fill="#FF5C00"/>
<path d="M38.264 29.2918L48.4859 31.7697L38.4835 39.8074L38.264 29.2918Z" fill="#544CAC"/>
<path d="M11.9407 23.0538L36.54 3.17969L37.4463 41.7505L11.9407 23.0538Z" fill="#544CAC"/>
<path d="M56.798 35L60.713 25.111H59.176L60.249 22.414H61.786L63.787 17.397H56.798V14.7H67.557L64.483 22.414H66.049L65.005 25.111H63.41L60.539 32.303H67.557V35H56.798ZM72.6064 35V14.7H75.3034V35H72.6064ZM79.1244 35V14.7H87.8244C88.385 14.7 88.8684 14.903 89.2744 15.309C89.6804 15.715 89.8834 16.208 89.8834 16.788V23.023C89.8834 23.603 89.6804 24.096 89.2744 24.502C88.8684 24.908 88.385 25.111 87.8244 25.111H87.2154L89.8834 35H87.2154L84.5184 25.111H81.8214V35H79.1244ZM81.8214 22.414H86.1714C86.442 22.414 86.6837 22.3173 86.8964 22.124C87.109 21.9113 87.2154 21.66 87.2154 21.37V18.441C87.2154 18.151 87.109 17.9093 86.8964 17.716C86.6837 17.5033 86.442 17.397 86.1714 17.397H81.8214V22.414ZM95.18 35C94.6386 35 94.165 34.797 93.759 34.391C93.353 33.985 93.15 33.4823 93.15 32.883V16.817C93.15 16.2177 93.353 15.715 93.759 15.309C94.165 14.903 94.6386 14.7 95.18 14.7H101.763C102.382 14.7 102.884 14.903 103.271 15.309C103.677 15.715 103.88 16.2177 103.88 16.817V32.883C103.88 33.4823 103.677 33.985 103.271 34.391C102.884 34.797 102.382 35 101.763 35H95.18ZM96.833 32.332H100.11C100.439 32.332 100.7 32.2257 100.893 32.013C101.106 31.8003 101.212 31.5393 101.212 31.23V18.47C101.212 18.1413 101.106 17.8803 100.893 17.687C100.7 17.4743 100.439 17.368 100.11 17.368H96.833C96.5623 17.368 96.3206 17.4743 96.108 17.687C95.9146 17.8803 95.818 18.1413 95.818 18.47V31.23C95.818 31.5393 95.9146 31.8003 96.108 32.013C96.3206 32.2257 96.5623 32.332 96.833 32.332Z" fill="#272626"/>
</g>
<defs>
<filter id="filter0_d_0_7" x="0.952881" y="3.17969" width="106.927" height="46.5708" filterUnits="userSpaceOnUse" color-interpolation-filters="sRGB">
<feFlood flood-opacity="0" result="BackgroundImageFix"/>
<feColorMatrix in="SourceAlpha" type="matrix" values="0 0 0 0 0 0 0 0 0 0 0 0 0 0 0 0 0 0 127 0" result="hardAlpha"/>
<feOffset dy="4"/>
<feGaussianBlur stdDeviation="2"/>
<feComposite in2="hardAlpha" operator="out"/>
<feColorMatrix type="matrix" values="0 0 0 0 0 0 0 0 0 0 0 0 0 0 0 0 0 0 0.25 0"/>
<feBlend mode="normal" in2="BackgroundImageFix" result="effect1_dropShadow_0_7"/>
<feBlend mode="normal" in="SourceGraphic" in2="effect1_dropShadow_0_7" result="shape"/>
</filter>
</defs>
</svg>
